<svg width="27" height="27" viewBox="0 0 27 27" fill="none" xmlns="http://www.w3.org/2000/svg">
<rect x="0.25" y="0.25" width="26.5" height="26.5" rx="13.25" fill="#F5B100" stroke="#DC9F00" stroke-width="0.5"/>
<path d="M13.1733 13.6682L11.7669 9.31431H8.83555L11.8701 16.9129C11.8701 16.9129 12.5674 15.3496 13.1733 13.6682Z" fill="white"/>
<path d="M15.3243 9.31431L14.1964 13.1247C13.9233 14.217 12.9791 17.6527 11.6431 18.6688C11.318 19.0213 10.7314 19.0832 10.0179 18.926H9.98376V20.99C10.4983 21.1015 11.0234 21.1596 11.5505 21.163C13.452 21.163 14.2971 20.5423 15.0724 18.2893L18.1489 9.31431H15.3243Z" fill="#D02879"/>
<path d="M15.3244 6.99748C15.3244 6.24292 15.935 5.83697 16.7196 5.83697C17.5042 5.83697 18.1244 6.24594 18.1244 6.99748C18.1244 7.74901 17.5058 8.161 16.7196 8.161C15.9334 8.161 15.3244 7.76562 15.3244 6.99748Z" fill="#D02879"/>
</svg>
